<svg width="64" height="50" viewBox="0 0 64 50" fill="none" xmlns="http://www.w3.org/2000/svg">
<path d="M56.8889 5.35714C57.8667 5.35714 58.6667 6.16071 58.6667 7.14286V42.8571C58.6667 43.8393 57.8667 44.6429 56.8889 44.6429H7.11111C6.13333 44.6429 5.33333 43.8393 5.33333 42.8571V7.14286C5.33333 6.16071 6.13333 5.35714 7.11111 5.35714H56.8889ZM7.11111 0C3.18889 0 0 3.20312 0 7.14286V42.8571C0 46.7969 3.18889 50 7.11111 50H56.8889C60.8111 50 64 46.7969 64 42.8571V7.14286C64 3.20312 60.8111 0 56.8889 0H7.11111ZM23.1111 24.1071C26.5444 24.1071 29.3333 21.3058 29.3333 17.8571C29.3333 14.4085 26.5444 11.6071 23.1111 11.6071C19.6778 11.6071 16.8889 14.4085 16.8889 17.8571C16.8889 21.3058 19.6778 24.1071 23.1111 24.1071ZM19.5556 28.5714C14.6444 28.5714 10.6667 32.567 10.6667 37.5C10.6667 38.4821 11.4667 39.2857 12.4444 39.2857H33.7778C34.7556 39.2857 35.5556 38.4821 35.5556 37.5C35.5556 32.567 31.5778 28.5714 26.6667 28.5714H19.5556ZM41.7778 12.5C40.3 12.5 39.1111 13.6942 39.1111 15.1786C39.1111 16.6629 40.3 17.8571 41.7778 17.8571H50.6667C52.1444 17.8571 53.3333 16.6629 53.3333 15.1786C53.3333 13.6942 52.1444 12.5 50.6667 12.5H41.7778ZM41.7778 23.2143C40.3 23.2143 39.1111 24.4085 39.1111 25.8929C39.1111 27.3772 40.3 28.5714 41.7778 28.5714H50.6667C52.1444 28.5714 53.3333 27.3772 53.3333 25.8929C53.3333 24.4085 52.1444 23.2143 50.6667 23.2143H41.7778Z" fill="#D0D4AB"/>
</svg>
