<svg width="50" height="50" viewBox="0 0 50 50" fill="none" xmlns="http://www.w3.org/2000/svg">
<g clip-path="url(#clip0_51_386)">
<path d="M25 50C38.7854 50 50 38.7854 50 25C50 11.2146 38.7854 0 25 0C11.2146 0 0 11.2146 0 25C0 38.7854 11.2146 50 25 50ZM13.1105 27.6938L23.5271 17.2771C23.9333 16.8708 24.4666 16.6666 25 16.6666C25.5334 16.6666 26.0667 16.8708 26.4729 17.2771L36.8896 27.6938C37.7041 28.5083 37.7041 29.825 36.8896 30.6395C36.075 31.4541 34.7583 31.4541 33.9438 30.6395L25 21.6958L16.0562 30.6395C15.2417 31.4541 13.925 31.4541 13.1105 30.6395C12.2958 29.825 12.2958 28.5083 13.1105 27.6938Z" fill="#D0D4AB"/>
</g>
<defs>
<clipPath id="clip0_51_386">
<rect width="50" height="50" fill="white" transform="matrix(-1 0 0 -1 50 50)"/>
</clipPath>
</defs>
</svg>
