<svg width="50" height="50" viewBox="0 0 50 50" fill="none" xmlns="http://www.w3.org/2000/svg">
<g clip-path="url(#clip0_39_147)">
<path d="M25 0C11.2146 0 0 11.2146 0 25C0 38.7854 11.2146 50 25 50C38.7854 50 50 38.7854 50 25C50 11.2146 38.7854 0 25 0ZM36.8895 22.3062L26.4729 32.7229C26.0667 33.1292 25.5334 33.3334 25 33.3334C24.4666 33.3334 23.9333 33.1292 23.5271 32.7229L13.1104 22.3062C12.2959 21.4917 12.2959 20.175 13.1104 19.3605C13.925 18.5459 15.2417 18.5459 16.0562 19.3605L25 28.3042L33.9438 19.3605C34.7583 18.5459 36.075 18.5459 36.8895 19.3605C37.7042 20.175 37.7042 21.4917 36.8895 22.3062Z" fill="#D0D4AB"/>
</g>
<defs>
<clipPath id="clip0_39_147">
<rect width="50" height="50" fill="white"/>
</clipPath>
</defs>
</svg>
