<svg width="50" height="50" viewBox="0 0 50 50" fill="none" xmlns="http://www.w3.org/2000/svg">
<path d="M23.446 0.600645C24.3344 -0.200215 25.6817 -0.200215 26.5702 0.600645L49.2205 20.9151C50.1871 21.7746 50.2652 23.2591 49.3963 24.226C48.5274 25.1929 47.0531 25.271 46.0866 24.4018L45.3055 23.6986V43.7494C45.3055 47.197 42.5035 50 39.0572 50H10.9394C7.49308 50 4.69107 47.197 4.69107 43.7494V23.6986L3.91002 24.4018C2.94348 25.2613 1.46925 25.1831 0.600333 24.226C-0.268582 23.2689 -0.180714 21.7844 0.776069 20.9151L23.446 0.600645ZM25.0081 5.4937L9.38712 19.5087V43.7592C9.38712 44.6186 10.0901 45.3218 10.9492 45.3218H15.6355V35.1646C15.6355 31.2775 18.7792 28.1326 22.6649 28.1326H27.3512C31.2369 28.1326 34.3806 31.2775 34.3806 35.1646V45.3218H39.0669C39.9261 45.3218 40.629 44.6186 40.629 43.7592V19.5087L25.0081 5.50347V5.4937ZM20.3218 45.3218H29.6944V35.1646C29.6944 33.8656 28.6497 32.8206 27.3512 32.8206H22.6649C21.3664 32.8206 20.3218 33.8656 20.3218 35.1646V45.3218Z" fill="#D0D4AB"/>
</svg>
